<?xml version="1.0" encoding="utf-8"?>
<!-- Generator: Adobe Illustrator 25.0.1, SVG Export Plug-In . SVG Version: 6.00 Build 0)  -->
<svg version="1.1" id="Layer_1" xmlns="http://www.w3.org/2000/svg" xmlns:xlink="http://www.w3.org/1999/xlink" x="0px" y="0px"
	 viewBox="0 0 100 100" style="enable-background:new 0 0 100 100;" xml:space="preserve">
<style type="text/css">
	.st0{fill:url(#SVGID_1_);}
	.st1{fill:url(#SVGID_2_);}
	.st2{fill:#57585A;}
	.st3{fill:#282828;}
	.st4{opacity:0.1;fill:#FFFFFF;}
	.st5{fill:#FFFFFF;}
</style>
<linearGradient id="SVGID_1_" gradientUnits="userSpaceOnUse" x1="84.8759" y1="81.15" x2="11.293" y2="19.6478" gradientTransform="matrix(1 0 0 -1 0 102)">
	<stop  offset="0" style="stop-color:#FFFFFF"/>
	<stop  offset="0.1769" style="stop-color:#FCFCFC"/>
	<stop  offset="0.3296" style="stop-color:#F1F1F1"/>
	<stop  offset="0.4734" style="stop-color:#DFDFDF"/>
	<stop  offset="0.6117" style="stop-color:#C6C6C6"/>
	<stop  offset="0.7462" style="stop-color:#A6A6A6"/>
	<stop  offset="0.8758" style="stop-color:#7F7F7F"/>
	<stop  offset="1" style="stop-color:#525252"/>
</linearGradient>
<circle class="st0" cx="50" cy="50" r="49.7"/>
<radialGradient id="SVGID_2_" cx="50.0938" cy="50.0938" r="38.4664" gradientUnits="userSpaceOnUse">
	<stop  offset="0" style="stop-color:#73519C"/>
	<stop  offset="0.4276" style="stop-color:#714F9A"/>
	<stop  offset="0.6371" style="stop-color:#694793"/>
	<stop  offset="0.7991" style="stop-color:#5D3A86"/>
	<stop  offset="0.9359" style="stop-color:#4A2874"/>
	<stop  offset="1" style="stop-color:#3F1C69"/>
</radialGradient>
<path class="st1" d="M83.2,30.5c-6.7-11.4-19.1-18.9-33.1-18.9c-21.2,0-38.5,17.3-38.5,38.5c0,9.9,3.7,19,9.9,25.8c0,0-0.1,0-0.1,0
	c7,7.8,17.3,12.7,28.6,12.7c21.2,0,38.5-17.3,38.5-38.5C88.6,43,86.6,36.3,83.2,30.5z"/>
<path class="st2" d="M88.3,21c-0.3-0.4-0.7-0.9-1-1.3c0,0,0-0.1-0.1-0.1c0,0,0,0,0,0c-4.3-5.3-9.8-9.8-16.3-12.9c0,0,0,0,0,0
	c-0.7-0.3-1.4-0.7-2.2-1c-0.2-0.1-0.5-0.2-0.7-0.3c-0.5-0.2-1-0.4-1.6-0.6c-0.5-0.2-0.9-0.3-1.4-0.5c-0.3-0.1-0.5-0.2-0.8-0.3
	C64.1,4,64,4,63.9,4c-0.4-0.1-0.8-0.2-1.3-0.4c-0.4-0.1-0.8-0.2-1.2-0.3C61,3.2,60.6,3.1,60.2,3c-0.5-0.1-1-0.2-1.5-0.3
	c-0.3-0.1-0.6-0.1-0.9-0.2c-0.7-0.1-1.3-0.2-2-0.3c-0.1,0-0.3,0-0.4-0.1C49.5,1.5,43.6,2,38,3.4c-0.1,0-0.2,0.1-0.3,0.1
	c-0.6,0.2-1.2,0.3-1.8,0.5c-0.3,0.1-0.7,0.2-1,0.3c-0.4,0.1-0.8,0.3-1.2,0.4c-0.4,0.2-0.9,0.3-1.3,0.5c-0.3,0.1-0.5,0.2-0.8,0.3
	c-0.5,0.2-1,0.4-1.4,0.6c-0.2,0.1-0.4,0.2-0.7,0.3C29,6.7,28.5,7,28,7.2c-0.2,0.1-0.4,0.2-0.6,0.3C26.9,7.8,26.5,8,26,8.3
	c-0.2,0.1-0.4,0.3-0.7,0.4c-0.4,0.2-0.8,0.5-1.2,0.8c-0.3,0.2-0.5,0.3-0.8,0.5c-0.4,0.2-0.7,0.5-1,0.7c-0.3,0.2-0.6,0.4-0.9,0.6
	c-0.3,0.2-0.6,0.4-0.9,0.7c-0.3,0.3-0.7,0.5-1,0.8c-0.2,0.2-0.5,0.4-0.7,0.6c-0.4,0.3-0.7,0.6-1.1,1c-0.2,0.2-0.4,0.3-0.6,0.5
	c-0.4,0.4-0.8,0.7-1.1,1.1c-0.2,0.2-0.3,0.3-0.5,0.5c-0.4,0.4-0.8,0.8-1.1,1.2c-0.2,0.2-0.3,0.4-0.5,0.5c-0.4,0.4-0.7,0.8-1,1.2
	c-0.2,0.2-0.4,0.4-0.5,0.7c-0.3,0.4-0.6,0.7-0.9,1.1c-0.2,0.3-0.5,0.7-0.7,1c-0.2,0.3-0.4,0.6-0.6,0.8c-0.4,0.5-0.7,1.1-1,1.6
	c-0.1,0.1-0.1,0.2-0.2,0.3C6.3,29.1,4.3,34,3.1,39.1c0,0.1-0.1,0.3-0.1,0.4c-0.1,0.4-0.2,0.9-0.3,1.3c-0.1,0.6-0.2,1.2-0.3,1.8
	c0,0,0,0.1,0,0.1c-1.1,7.1-0.6,14.2,1.3,20.8c0.2,0.6,0.4,1.2,0.6,1.9c0.1,0.2,0.1,0.3,0.2,0.5c0.1,0.3,0.2,0.7,0.4,1
	c0.3,0.7,0.5,1.4,0.8,2.1c0,0,0,0,0,0.1c1.1,2.7,2.5,5.2,4.1,7.6c2.2,3.3,4.7,6.3,7.6,8.9c0.3,0.3,0.6,0.5,0.8,0.7
	c0.4,0.4,0.9,0.8,1.3,1.2c0.4,0.3,0.7,0.6,1.1,0.8c0.4,0.3,0.8,0.6,1.2,0.9c0.3,0.2,0.7,0.4,1,0.7c0.5,0.3,1,0.7,1.5,1
	c0.2,0.1,0.5,0.3,0.7,0.4c0.6,0.4,1.3,0.8,2,1.1c0.1,0.1,0.2,0.1,0.3,0.2c5.4,2.9,11.4,4.7,17.7,5.3c0.1,0,0.2,0,0.3,0
	c0.7,0.1,1.5,0.1,2.2,0.2c0.1,0,0.2,0,0.3,0c0.7,0,1.4,0.1,2,0.1c8.9,0,17.2-2.4,24.3-6.6c0.1-0.1,0.2-0.1,0.3-0.2
	c0.4-0.3,0.9-0.5,1.3-0.8c0.3-0.2,0.6-0.3,0.8-0.5c0.2-0.2,0.5-0.3,0.7-0.5c0.5-0.3,0.9-0.6,1.4-1c0,0,0.1-0.1,0.1-0.1
	c7.7-5.7,13.7-13.7,16.9-23.5c0.1-0.3,0.2-0.5,0.3-0.7c0,0,0,0,0,0c0.2-0.7,0.4-1.4,0.6-2.1c0.1-0.3,0.2-0.7,0.2-1
	c0.1-0.4,0.2-0.8,0.3-1.2c0.1-0.4,0.1-0.7,0.2-1.1c0.1-0.4,0.1-0.7,0.2-1.1c0.1-0.4,0.1-0.8,0.2-1.2c0-0.3,0.1-0.7,0.1-1
	c0-0.4,0.1-0.8,0.1-1.2c0-0.3,0-0.6,0.1-0.9c0-0.5,0.1-0.9,0.1-1.4c0-0.2,0-0.4,0-0.6c0-0.5,0-0.9,0-1.4
	C98.1,39.1,94.4,29.1,88.3,21z M90.2,43c-1,3.1-1,6.2-1.3,9.5c-0.1,1.7-0.4,3.4-0.5,5c-0.1,0.7,0,1.6-0.1,2.4c0.1,0.2,0.1,0.5,0,0.7
	c-0.3,2.5-1.5,4.5-2.6,6.7c-1.2,2.1-2.1,4.3-3.6,6.2c-2.6,3.4-5.9,6.1-8.9,9.1c-1.4,1.5-2.9,2.8-4.8,3.7c-2,0.9-4,1.7-6.1,2.4
	c-4.4,1.4-8.7,1.3-13.3,1.2c-4.6-0.1-9.3,0.4-13.7-1.1c-0.6-0.2-1.1-0.6-1.3-1.1c0,0,0,0,0,0c-2.4,0-3-2.9-1.6-4.2
	C24.8,79.6,19,73.4,15.6,65.9c-2.4-5.2-3.6-10.9-3.5-16.7c0,0,0-0.1,0-0.1c0-0.5,0-1.1,0.1-1.6c0-0.1,0-0.2,0-0.3
	c0-0.5,0.1-1,0.1-1.4c0-0.1,0-0.3,0.1-0.4c0.1-0.4,0.1-0.9,0.2-1.3c0-0.1,0.1-0.3,0.1-0.4c0.1-0.5,0.2-0.9,0.3-1.4c0,0,0-0.1,0-0.1
	c0.2-0.8,0.4-1.5,0.6-2.3c0.1-0.4,0.2-0.8,0.3-1.1c0-0.1,0-0.1,0.1-0.2C18.6,23.2,33,12.1,49.9,12.1c13.9,0,26,7.5,32.6,18.5
	c1,1.7,1.8,3.4,2.6,5.2c0.1,0,0.2-0.1,0.3-0.1c0.3-0.1,0.6-0.1,1,0c0.3,0,0.6,0.1,0.9,0.3c0.3,0.2,0.5,0.4,0.7,0.6
	c0.2,0.2,0.4,0.5,0.4,0.8c0.2,0.8,0.3,1.7,0.5,2.5c0,0.1,0,0.2,0,0.3C89.9,40.5,90.7,41.5,90.2,43z"/>
<path class="st3" d="M94.5,32c-2.3-5.9-5.9-11.3-10.4-15.8c0.6,3.2,0.9,6.6,0.9,10c0,2.8-0.2,5.5-0.6,8.2c1,2.2,1.7,4,2.5,6.8
	c1.5,6.4,1.5,13.2-0.6,20c-6.2,20-27.4,31.2-47.4,25c-2.3-0.7-4.4-1.6-6.4-2.6c-1.7,0.1-3.4,0.2-5.1,0.2c-4.5,0-8.8-0.5-12.9-1.5
	c5.6,6.2,12.8,11,21.3,13.6c25.4,7.9,52.4-6.4,60.3-31.7C99.4,53.2,98.6,41.9,94.5,32z"/>
<path class="st4" d="M84.4,34.1c-0.5-1.2-1.1-2.3-1.8-3.5C76,19.4,63.8,12,50,12c-20.9,0-37.9,17-37.9,37.9c0,9.8,3.7,18.7,9.8,25.4
	c0,0-0.1,0-0.1,0c3,3.3,6.5,6.1,10.5,8.2C59.1,81.2,80.7,60.5,84.4,34.1z"/>
<g>
	<circle class="st5" cx="40.8" cy="46.9" r="5.7"/>
	<path class="st5" d="M59.5,55.8c-0.2,0-0.3,0-0.5,0c-0.4,0-0.8,0.1-1.1,0.3l-5.9,5.4L47,55c-0.2-0.3-0.4-0.5-0.7-0.6
		c-0.5-0.4-1.2-0.7-1.9-0.7h-7.1c-0.6,0-1.2,0.2-1.7,0.5c-0.4,0.1-0.8,0.4-1.1,0.8l-5.1,6.6l-0.6,0.8c-0.9,1-0.7,2.6,0.2,3.5
		l5.2,4.4v0.1c0,0.7,0.5,1.2,1.2,1.2h10.7c0.7,0,1.2-0.5,1.2-1.2v-8.3l2,2.6l0,0c0.7,1,1.9,1.6,3.1,1.6c0.2,0,0.5,0,0.8-0.1
		c0.5-0.1,1-0.3,1.4-0.7l5.6-6.1c0.9-0.7,1-2,0.3-2.8l0,0L59.5,55.8z M31.8,63.7l2.4-2.8v5L31.8,63.7z"/>
	<path class="st5" d="M61.9,56.4c0.2,0.5,0.4,1.1,0.3,1.8c-0.1,0.8-0.5,1.5-1.1,2l-2.1,1.7h11.8c1,0,1.9-0.8,1.9-1.9V36.2
		c0-1-0.9-1.9-1.9-1.9H31.6c-1,0-1.9,0.8-1.9,1.9v23.1l3.8-5c0.3-0.5,0.8-0.9,1.4-1.1c0.6-0.3,1.2-0.6,1.9-0.6
		c-1.7-1.2-2.9-3.3-2.9-5.5c0-3.8,3.1-6.9,6.9-6.9c3.8,0,6.9,3.1,6.9,6.9c0,2.3-1.1,4.3-2.9,5.5c0.8,0,1.5,0.4,2.2,0.9
		c0.4,0.2,0.7,0.5,1,0.9l4.2,5.5l4.9-4.5l0,0l0,0c0.4-0.3,1-0.5,1.5-0.6C60.5,54.5,61.9,56.4,61.9,56.4z"/>
</g>
</svg>
